<svg width="188" height="237" viewBox="0 0 188 237" fill="none" xmlns="http://www.w3.org/2000/svg">
<rect x="88" y="27.7461" width="6" height="34" fill="#323232"/>
<path d="M8 150.746C8 141.91 15.1634 134.746 24 134.746H159C167.837 134.746 175 141.91 175 150.746V234.746H8V150.746Z" fill="#323232"/>
<path d="M0 163.746C0 158.223 4.47715 153.746 10 153.746H172C177.523 153.746 182 158.223 182 163.746V224.746H0V163.746Z" fill="#323232"/>
<path d="M29 98.7461C29 68.3704 53.6243 43.7461 84 43.7461H100C130.376 43.7461 155 68.3704 155 98.7461V164.746H29V98.7461Z" fill="#323232"/>
<path d="M69 166.246C69 153.82 79.0736 143.746 91.5 143.746C103.926 143.746 114 153.82 114 166.246V234.746H69V166.246Z" fill="white"/>
<path d="M23 184.746C23 177.014 29.268 170.746 37 170.746C44.732 170.746 51 177.014 51 184.746V227.746H23V184.746Z" fill="white"/>
<path d="M131 184.746C131 177.014 137.268 170.746 145 170.746C152.732 170.746 159 177.014 159 184.746V227.746H131V184.746Z" fill="white"/>
<path fill-rule="evenodd" clip-rule="evenodd" d="M94.0273 0.131986C86.9368 1.06239 81.4788 6.79876 81.4788 13.7364C81.4788 21.3227 88.0053 27.4727 96.0562 27.4727C100.416 27.4727 104.329 25.6692 107 22.8108C104.268 28.1007 98.5081 31.7462 91.8449 31.7462C82.5417 31.7462 75 24.6396 75 15.8731C75 7.10664 82.5417 0 91.8449 0C92.5845 0 93.3129 0.0449072 94.0273 0.131986Z" fill="#323232"/>
<rect x="23" y="122.746" width="136" height="12" rx="6" fill="#F6F6F6"/>
<rect x="-4" y="223.746" width="192" height="13" rx="6.5" fill="#323232"/>
</svg>
